<svg width="450" height="367" viewBox="0 0 450 367" fill="none" xmlns="http://www.w3.org/2000/svg">
<g clip-path="url(#clip0_53_292)">
<path d="M131.901 345.404C133.618 347.033 135.727 348.192 138.024 348.771C140.32 349.35 142.728 349.329 145.014 348.709C150.873 347.049 154.849 341.771 158.379 336.815L168.822 322.16L160.021 323.771C153.691 324.929 147.205 326.146 141.693 329.461C136.181 332.777 131.767 338.696 132.116 345.11" fill="#E6E6E6"/>
<path d="M123.72 365.146C125.264 359.892 126.816 354.566 129.541 349.777C131.961 345.525 135.268 341.793 139.631 339.473C141.945 338.245 144.456 337.43 147.051 337.063C147.728 336.968 147.838 338.02 147.165 338.115C142.672 338.756 138.499 340.805 135.248 343.966C131.644 347.486 129.28 352.025 127.532 356.696C126.474 359.521 125.62 362.415 124.77 365.308C124.745 365.445 124.668 365.567 124.556 365.649C124.444 365.731 124.304 365.767 124.166 365.75C124.027 365.728 123.903 365.652 123.82 365.539C123.737 365.426 123.702 365.285 123.723 365.147L123.72 365.146Z" fill="#F2F2F2"/>
<path d="M293.672 153.532C294.675 153.291 295.719 153.272 296.73 153.477C297.741 153.682 298.695 154.106 299.524 154.719C300.354 155.331 301.038 156.118 301.53 157.024C302.022 157.93 302.309 158.932 302.371 159.96L326.516 166.737L316.664 175.256L295.246 167.514C293.508 167.504 291.836 166.857 290.544 165.697C289.252 164.537 288.432 162.945 288.238 161.221C288.044 159.498 288.49 157.763 289.492 156.346C290.493 154.929 291.98 153.927 293.672 153.532L293.672 153.532Z" fill="#9F616A"/>
<path d="M355.718 358.791L348.68 358.791L345.332 331.688L355.72 331.689L355.718 358.791Z" fill="#9F616A"/>
<path d="M357.513 365.602L334.82 365.602V365.315C334.82 362.976 335.75 360.733 337.407 359.079C339.063 357.426 341.31 356.497 343.653 356.496H343.653L357.513 356.497L357.513 365.602Z" fill="#2F2E41"/>
<path d="M396.959 358.791L389.921 358.791L386.573 331.688L396.96 331.689L396.959 358.791Z" fill="#9F616A"/>
<path d="M398.754 365.602L376.06 365.602V365.315C376.06 362.976 376.991 360.733 378.647 359.08C380.304 357.426 382.55 356.497 384.893 356.497H384.894L398.754 356.497L398.754 365.602Z" fill="#2F2E41"/>
<path d="M349.968 203.236L339.6 274.929L342.183 350.465L357.751 351.703L362.62 283.962L375.012 246.189L382.297 300.034L382.597 350.465L398.672 351.703L404.279 245.676L400.155 199.566L349.968 203.236Z" fill="#2F2E41"/>
<path d="M379.953 107.248C389.011 107.248 396.354 99.9166 396.354 90.8734C396.354 81.8303 389.011 74.4993 379.953 74.4993C370.895 74.4993 363.552 81.8303 363.552 90.8734C363.552 99.9166 370.895 107.248 379.953 107.248Z" fill="#9F616A"/>
<path d="M369.844 116.154L351.738 207.221C351.738 207.221 382.222 215.956 395.576 207.893C408.931 199.829 402.947 174.935 402.947 174.935L400.501 132.577L395.981 121.865L392.146 113.023L369.844 116.154Z" fill="#CBCBCB"/>
<path d="M364.544 180.796L370.799 114.386L365.797 118.032L348.308 123.703L347.111 170.458L334.877 231.942C334.877 231.942 343.621 248.977 354.459 220.794L364.544 180.796Z" fill="#2F2E41"/>
<path d="M356.725 130.695L348.308 123.702L329.391 164.729L308.282 160.113L307.284 172.56L337.869 184.644L358.711 155.675L356.725 130.695Z" fill="#2F2E41"/>
<path d="M389.469 166.26L391.826 112.211L400.501 118.918L415.994 123.229L413.722 166.26L416.991 233.029L400.749 238.165L396.189 196.033L389.469 166.26Z" fill="#2F2E41"/>
<path d="M390.511 209.768C390.693 208.754 391.095 207.792 391.69 206.95C392.284 206.108 393.056 205.407 393.951 204.895C394.847 204.383 395.844 204.073 396.872 203.987C397.9 203.902 398.935 204.042 399.903 204.399L415.821 185.048L419.675 197.478L403.968 213.948C403.26 215.532 401.995 216.802 400.412 217.516C398.829 218.231 397.039 218.341 395.38 217.826C393.721 217.311 392.31 216.206 391.412 214.721C390.515 213.236 390.194 211.474 390.511 209.768V209.768Z" fill="#9F616A"/>
<path d="M405.621 129.229L415.994 123.229L442.093 174.686L416.647 209.964L402.133 198.378L419.757 175.433L403.695 150.789L405.621 129.229Z" fill="#2F2E41"/>
<path d="M395.379 77.7832L396.174 76.1855L392.173 74.201C392.173 74.201 387.759 67.0315 379.773 69.0463C371.787 71.061 368.194 72.2669 368.194 72.2669L364.203 74.2715L366.206 76.2611L362.613 77.4669L365.013 78.6576L362.22 80.2604L363.724 88.4765C363.724 88.4765 366.221 82.2449 371.022 84.6263C375.823 87.0077 384.604 83.3953 384.604 83.3953L392.233 98.1361C392.233 98.1361 393.807 92.9687 396.613 94.3466C396.614 94.3466 403.783 82.9479 395.379 77.7832Z" fill="#2F2E41"/>
<path d="M295.755 101.806H295.65L235.504 127.447L153.211 162.529C152.89 162.664 152.545 162.735 152.196 162.737C151.847 162.738 151.501 162.671 151.178 162.54L66.2766 127.374L4.65259 101.848L4.55846 101.806H4.45356C3.48122 101.807 2.54903 102.193 1.86149 102.879C1.17395 103.566 0.787216 104.497 0.786133 105.467V264.481C0.787218 265.452 1.17395 266.383 1.86149 267.069C2.54903 267.756 3.48122 268.142 4.45356 268.143H295.755C296.728 268.142 297.66 267.756 298.347 267.069C299.035 266.383 299.422 265.452 299.423 264.481V105.467C299.422 104.497 299.035 103.566 298.347 102.879C297.66 102.193 296.728 101.807 295.755 101.806Z" fill="white"/>
<path d="M296.017 102.852C295.91 102.852 295.805 102.819 295.718 102.758L150.822 2.01275C150.381 1.70758 149.857 1.54449 149.32 1.54541C148.784 1.54632 148.26 1.71119 147.821 2.01785L3.96842 102.757C3.85463 102.837 3.71391 102.868 3.57715 102.844C3.44039 102.82 3.31879 102.742 3.23905 102.629C3.15932 102.515 3.12796 102.375 3.15187 102.238C3.17579 102.102 3.25301 101.98 3.36659 101.901L147.219 1.16125C147.835 0.731995 148.568 0.501237 149.319 0.500005C150.07 0.498773 150.803 0.727123 151.421 1.15436L296.317 101.9C296.408 101.963 296.477 102.054 296.513 102.16C296.549 102.265 296.55 102.379 296.517 102.486C296.483 102.592 296.417 102.685 296.327 102.751C296.237 102.817 296.128 102.852 296.017 102.852L296.017 102.852Z" fill="#3F3D56"/>
<path d="M12.1882 106.423L149.462 4.8515L287.779 113.65L156.535 191.326L85.2817 175.112L12.1882 106.423Z" fill="#E6E6E6"/>
<path d="M91.2968 239.304H23.4799C23.0634 239.305 22.6508 239.224 22.2657 239.066C21.8806 238.908 21.5304 238.676 21.2353 238.382C20.9402 238.089 20.7059 237.74 20.5459 237.356C20.3858 236.973 20.3031 236.561 20.3025 236.145C20.3019 235.73 20.3834 235.318 20.5423 234.933C20.7012 234.549 20.9345 234.2 21.2287 233.906C21.5229 233.611 21.8724 233.378 22.2571 233.219C22.6417 233.059 23.0541 232.977 23.4705 232.977H91.2968C91.7132 232.976 92.1258 233.057 92.5109 233.215C92.8961 233.373 93.2462 233.606 93.5413 233.899C93.8364 234.192 94.0707 234.541 94.2308 234.925C94.3908 235.309 94.4735 235.72 94.4741 236.136C94.4747 236.552 94.3932 236.964 94.2343 237.348C94.0754 237.732 93.8421 238.081 93.5479 238.376C93.2537 238.67 92.9042 238.903 92.5196 239.062C92.1349 239.222 91.7226 239.304 91.3061 239.304H91.2968Z" fill="url(#paint0_linear_53_292)"/>
<path d="M47.8108 225.704H23.4796C23.0632 225.705 22.6506 225.624 22.2655 225.466C21.8803 225.308 21.5302 225.076 21.2351 224.782C20.94 224.489 20.7057 224.14 20.5456 223.757C20.3856 223.373 20.3029 222.961 20.3022 222.545C20.3016 222.13 20.3831 221.718 20.5421 221.334C20.701 220.949 20.9342 220.6 21.2285 220.306C21.5227 220.012 21.8722 219.778 22.2568 219.619C22.6415 219.46 23.0538 219.378 23.4703 219.378H47.8108C48.6504 219.377 49.4556 219.71 50.0498 220.302C50.6439 220.894 50.9783 221.698 50.9796 222.536C50.9808 223.374 50.6488 224.179 50.0564 224.773C49.4641 225.367 48.6598 225.702 47.8202 225.704H47.8108Z" fill="url(#paint1_linear_53_292)"/>
<path d="M151.393 162.997C150.878 162.998 150.367 162.898 149.89 162.703L65.2288 127.632V17.8527C65.2299 16.8819 65.6166 15.9513 66.3042 15.2649C66.9917 14.5784 67.9239 14.1923 68.8962 14.1912H231.313C232.285 14.1923 233.217 14.5784 233.905 15.2649C234.592 15.9513 234.979 16.8819 234.98 17.8527V127.709L234.821 127.776L152.942 162.686C152.452 162.892 151.925 162.998 151.393 162.997Z" fill="url(#paint2_linear_53_292)"/>
<path d="M294.969 101.806H294.864L234.718 127.447L152.425 162.529C152.104 162.664 151.759 162.735 151.41 162.737C151.061 162.738 150.715 162.671 150.392 162.54L65.4905 127.374L3.86652 101.848L3.77239 101.806H3.66742C2.69509 101.807 1.7629 102.193 1.07536 102.879C0.387816 103.566 0.00108137 104.497 0 105.467V264.481C0.00108137 265.452 0.387816 266.383 1.07536 267.069C1.7629 267.756 2.69509 268.142 3.66742 268.143H294.969C295.942 268.142 296.874 267.756 297.561 267.069C298.249 266.383 298.636 265.452 298.637 264.481V105.467C298.636 104.497 298.249 103.566 297.561 102.879C296.874 102.193 295.942 101.807 294.969 101.806ZM297.589 264.481C297.589 265.175 297.313 265.84 296.821 266.33C296.33 266.821 295.664 267.096 294.969 267.097H3.66742C2.97274 267.096 2.30659 266.821 1.81537 266.33C1.32415 265.84 1.04806 265.175 1.04779 264.481V105.467C1.04874 104.791 1.31151 104.141 1.78117 103.654C2.25082 103.166 2.89101 102.879 3.5679 102.852L65.4905 128.503L149.989 163.507C150.904 163.879 151.929 163.873 152.839 163.492L234.718 128.582L295.074 102.852C295.75 102.881 296.388 103.169 296.857 103.656C297.325 104.143 297.587 104.792 297.589 105.467L297.589 264.481Z" fill="#3F3D56"/>
<path d="M138.213 55.227H80.5811C79.4707 55.2251 78.4065 54.7833 77.622 53.9988C76.8376 53.2142 76.397 52.151 76.397 51.0424C76.397 49.9339 76.8376 48.8706 77.622 48.0861C78.4065 47.3015 79.4707 46.8598 80.5811 46.8578H138.213C139.323 46.8598 140.387 47.3015 141.172 48.0861C141.956 48.8706 142.397 49.9339 142.397 51.0424C142.397 52.151 141.956 53.2142 141.172 53.9988C140.387 54.7833 139.323 55.2251 138.213 55.227Z" fill="white"/>
<path d="M108.349 37.4426H80.5813C79.4696 37.4426 78.4036 37.0017 77.6175 36.2169C76.8315 35.4322 76.3899 34.3678 76.3899 33.258C76.3899 32.1482 76.8315 31.0838 77.6175 30.2991C78.4036 29.5143 79.4696 29.0734 80.5813 29.0734H108.349C109.461 29.0734 110.527 29.5143 111.313 30.2991C112.099 31.0838 112.541 32.1482 112.541 33.258C112.541 34.3678 112.099 35.4322 111.313 36.2169C110.527 37.0017 109.461 37.4426 108.349 37.4426Z" fill="white"/>
<path d="M193.208 97.0728H105.189C104.078 97.0728 103.011 96.6319 102.225 95.8471C101.439 95.0624 100.998 93.998 100.998 92.8882C100.998 91.7784 101.439 90.714 102.225 89.9292C103.011 89.1445 104.078 88.7036 105.189 88.7036H193.208C194.32 88.7036 195.386 89.1445 196.172 89.9292C196.958 90.714 197.4 91.7784 197.4 92.8882C197.4 93.998 196.958 95.0624 196.172 95.8471C195.386 96.6319 194.32 97.0728 193.208 97.0728Z" fill="white"/>
<path d="M193.209 116.426H105.189C104.638 116.427 104.092 116.32 103.583 116.11C103.074 115.9 102.611 115.592 102.221 115.203C101.831 114.815 101.521 114.353 101.31 113.845C101.099 113.337 100.99 112.792 100.99 112.242C100.99 111.692 101.099 111.147 101.31 110.639C101.521 110.131 101.831 109.669 102.221 109.28C102.611 108.892 103.074 108.584 103.583 108.374C104.092 108.164 104.638 108.056 105.189 108.057H193.209C193.76 108.056 194.305 108.164 194.815 108.374C195.324 108.584 195.787 108.892 196.177 109.28C196.567 109.669 196.876 110.131 197.087 110.639C197.299 111.147 197.407 111.692 197.407 112.242C197.407 112.792 197.299 113.337 197.087 113.845C196.876 114.353 196.567 114.815 196.177 115.203C195.787 115.592 195.324 115.9 194.815 116.11C194.305 116.32 193.76 116.427 193.209 116.426Z" fill="white"/>
<path d="M449.361 366.263H281.206C281.037 366.263 280.874 366.196 280.754 366.077C280.634 365.957 280.567 365.794 280.567 365.625C280.567 365.456 280.634 365.293 280.754 365.174C280.874 365.054 281.037 364.987 281.206 364.987H449.361C449.53 364.987 449.693 365.054 449.813 365.174C449.933 365.293 450 365.456 450 365.625C450 365.794 449.933 365.957 449.813 366.077C449.693 366.196 449.53 366.263 449.361 366.263Z" fill="#CBCBCB"/>
<path d="M155.89 366.263H93.8706C93.701 366.263 93.5384 366.196 93.4185 366.077C93.2986 365.957 93.2312 365.794 93.2312 365.625C93.2312 365.456 93.2986 365.293 93.4185 365.174C93.5384 365.054 93.701 364.987 93.8706 364.987H155.89C156.059 364.987 156.222 365.054 156.342 365.174C156.462 365.293 156.529 365.456 156.529 365.625C156.529 365.794 156.462 365.957 156.342 366.077C156.222 366.196 156.059 366.263 155.89 366.263Z" fill="#CBCBCB"/>
<path d="M116.675 346.528C119.043 346.473 121.357 345.811 123.395 344.605C125.432 343.398 127.124 341.688 128.307 339.64C131.289 334.337 130.381 327.796 129.383 321.797L126.436 304.053L121.333 311.392C117.664 316.669 113.924 322.098 112.358 328.329C110.791 334.561 111.842 341.866 116.62 346.168" fill="#E6E6E6"/>
<path d="M124.819 366.285C122.202 361.473 119.541 356.604 118.091 351.29C116.803 346.57 116.513 341.597 117.967 336.88C118.741 334.38 119.945 332.034 121.526 329.948C121.939 329.404 122.76 330.071 122.349 330.613C119.617 334.231 118.105 338.621 118.033 343.151C117.964 348.185 119.493 353.067 121.554 357.61C122.798 360.358 124.237 363.01 125.678 365.66C125.757 365.775 125.788 365.915 125.767 366.053C125.745 366.19 125.672 366.314 125.562 366.399C125.448 366.481 125.306 366.515 125.168 366.494C125.029 366.472 124.904 366.396 124.821 366.284L124.819 366.285Z" fill="#F2F2F2"/>
</g>
<defs>
<linearGradient id="paint0_linear_53_292" x1="20.3025" y1="236.141" x2="94.4741" y2="236.141" gradientUnits="userSpaceOnUse">
<stop stop-color="#0BD99C"/>
<stop offset="1" stop-color="#009ACC"/>
</linearGradient>
<linearGradient id="paint1_linear_53_292" x1="20.3022" y1="222.541" x2="50.9796" y2="222.541" gradientUnits="userSpaceOnUse">
<stop stop-color="#0BD99C"/>
<stop offset="1" stop-color="#009ACC"/>
</linearGradient>
<linearGradient id="paint2_linear_53_292" x1="65.2288" y1="88.5942" x2="234.98" y2="88.5942" gradientUnits="userSpaceOnUse">
<stop stop-color="#0BD99C"/>
<stop offset="1" stop-color="#009ACC"/>
</linearGradient>
<clipPath id="clip0_53_292">
<rect width="450" height="366" fill="white" transform="translate(0 0.5)"/>
</clipPath>
</defs>
</svg>
